<?xml version="1.0" encoding="utf-8" standalone="no"?>
<!DOCTYPE svg PUBLIC "-//W3C//DTD SVG 1.1//EN"
  "http://www.w3.org/Graphics/SVG/1.1/DTD/svg11.dtd">
<!-- Created with matplotlib (https://matplotlib.org/) -->
<svg height="288pt" version="1.1" viewBox="0 0 720 288" width="720pt" xmlns="http://www.w3.org/2000/svg" xmlns:xlink="http://www.w3.org/1999/xlink">
 <defs>
  <style type="text/css">
*{stroke-linecap:butt;stroke-linejoin:round;}
  </style>
 </defs>
 <g id="figure_1">
  <g id="patch_1">
   <path d="M 0 288 
L 720 288 
L 720 0 
L 0 0 
z
" style="fill:#ffffff;"/>
  </g>
  <g id="axes_1">
   <g id="patch_2">
    <path d="M 90 252 
L 343.636364 252 
L 343.636364 34.56 
L 90 34.56 
z
" style="fill:#ffffff;"/>
   </g>
   <g id="matplotlib.axis_1">
    <g id="xtick_1">
     <g id="line2d_1">
      <defs>
       <path d="M 0 0 
L 0 3.5 
" id="mcba1e2cc1b" style="stroke:#000000;stroke-width:0.8;"/>
      </defs>
      <g>
       <use style="stroke:#000000;stroke-width:0.8;" x="99.176084" xlink:href="#mcba1e2cc1b" y="252"/>
      </g>
     </g>
     <g id="text_1">
      <!-- 0 -->
      <defs>
       <path d="M 31.78125 66.40625 
Q 24.171875 66.40625 20.328125 58.90625 
Q 16.5 51.421875 16.5 36.375 
Q 16.5 21.390625 20.328125 13.890625 
Q 24.171875 6.390625 31.78125 6.390625 
Q 39.453125 6.390625 43.28125 13.890625 
Q 47.125 21.390625 47.125 36.375 
Q 47.125 51.421875 43.28125 58.90625 
Q 39.453125 66.40625 31.78125 66.40625 
z
M 31.78125 74.21875 
Q 44.046875 74.21875 50.515625 64.515625 
Q 56.984375 54.828125 56.984375 36.375 
Q 56.984375 17.96875 50.515625 8.265625 
Q 44.046875 -1.421875 31.78125 -1.421875 
Q 19.53125 -1.421875 13.0625 8.265625 
Q 6.59375 17.96875 6.59375 36.375 
Q 6.59375 54.828125 13.0625 64.515625 
Q 19.53125 74.21875 31.78125 74.21875 
z
" id="DejaVuSans-48"/>
      </defs>
      <g transform="translate(95.994834 266.598437)scale(0.1 -0.1)">
       <use xlink:href="#DejaVuSans-48"/>
      </g>
     </g>
    </g>
    <g id="xtick_2">
     <g id="line2d_2">
      <g>
       <use style="stroke:#000000;stroke-width:0.8;" x="146.232923" xlink:href="#mcba1e2cc1b" y="252"/>
      </g>
     </g>
     <g id="text_2">
      <!-- 20 -->
      <defs>
       <path d="M 19.1875 8.296875 
L 53.609375 8.296875 
L 53.609375 0 
L 7.328125 0 
L 7.328125 8.296875 
Q 12.9375 14.109375 22.625 23.890625 
Q 32.328125 33.6875 34.8125 36.53125 
Q 39.546875 41.84375 41.421875 45.53125 
Q 43.3125 49.21875 43.3125 52.78125 
Q 43.3125 58.59375 39.234375 62.25 
Q 35.15625 65.921875 28.609375 65.921875 
Q 23.96875 65.921875 18.8125 64.3125 
Q 13.671875 62.703125 7.8125 59.421875 
L 7.8125 69.390625 
Q 13.765625 71.78125 18.9375 73 
Q 24.125 74.21875 28.421875 74.21875 
Q 39.75 74.21875 46.484375 68.546875 
Q 53.21875 62.890625 53.21875 53.421875 
Q 53.21875 48.921875 51.53125 44.890625 
Q 49.859375 40.875 45.40625 35.40625 
Q 44.1875 33.984375 37.640625 27.21875 
Q 31.109375 20.453125 19.1875 8.296875 
z
" id="DejaVuSans-50"/>
      </defs>
      <g transform="translate(139.870423 266.598437)scale(0.1 -0.1)">
       <use xlink:href="#DejaVuSans-50"/>
       <use x="63.623047" xlink:href="#DejaVuSans-48"/>
      </g>
     </g>
    </g>
    <g id="xtick_3">
     <g id="line2d_3">
      <g>
       <use style="stroke:#000000;stroke-width:0.8;" x="193.289762" xlink:href="#mcba1e2cc1b" y="252"/>
      </g>
     </g>
     <g id="text_3">
      <!-- 40 -->
      <defs>
       <path d="M 37.796875 64.3125 
L 12.890625 25.390625 
L 37.796875 25.390625 
z
M 35.203125 72.90625 
L 47.609375 72.90625 
L 47.609375 25.390625 
L 58.015625 25.390625 
L 58.015625 17.1875 
L 47.609375 17.1875 
L 47.609375 0 
L 37.796875 0 
L 37.796875 17.1875 
L 4.890625 17.1875 
L 4.890625 26.703125 
z
" id="DejaVuSans-52"/>
      </defs>
      <g transform="translate(186.927262 266.598437)scale(0.1 -0.1)">
       <use xlink:href="#DejaVuSans-52"/>
       <use x="63.623047" xlink:href="#DejaVuSans-48"/>
      </g>
     </g>
    </g>
    <g id="xtick_4">
     <g id="line2d_4">
      <g>
       <use style="stroke:#000000;stroke-width:0.8;" x="240.346601" xlink:href="#mcba1e2cc1b" y="252"/>
      </g>
     </g>
     <g id="text_4">
      <!-- 60 -->
      <defs>
       <path d="M 33.015625 40.375 
Q 26.375 40.375 22.484375 35.828125 
Q 18.609375 31.296875 18.609375 23.390625 
Q 18.609375 15.53125 22.484375 10.953125 
Q 26.375 6.390625 33.015625 6.390625 
Q 39.65625 6.390625 43.53125 10.953125 
Q 47.40625 15.53125 47.40625 23.390625 
Q 47.40625 31.296875 43.53125 35.828125 
Q 39.65625 40.375 33.015625 40.375 
z
M 52.59375 71.296875 
L 52.59375 62.3125 
Q 48.875 64.0625 45.09375 64.984375 
Q 41.3125 65.921875 37.59375 65.921875 
Q 27.828125 65.921875 22.671875 59.328125 
Q 17.53125 52.734375 16.796875 39.40625 
Q 19.671875 43.65625 24.015625 45.921875 
Q 28.375 48.1875 33.59375 48.1875 
Q 44.578125 48.1875 50.953125 41.515625 
Q 57.328125 34.859375 57.328125 23.390625 
Q 57.328125 12.15625 50.6875 5.359375 
Q 44.046875 -1.421875 33.015625 -1.421875 
Q 20.359375 -1.421875 13.671875 8.265625 
Q 6.984375 17.96875 6.984375 36.375 
Q 6.984375 53.65625 15.1875 63.9375 
Q 23.390625 74.21875 37.203125 74.21875 
Q 40.921875 74.21875 44.703125 73.484375 
Q 48.484375 72.75 52.59375 71.296875 
z
" id="DejaVuSans-54"/>
      </defs>
      <g transform="translate(233.984101 266.598437)scale(0.1 -0.1)">
       <use xlink:href="#DejaVuSans-54"/>
       <use x="63.623047" xlink:href="#DejaVuSans-48"/>
      </g>
     </g>
    </g>
    <g id="xtick_5">
     <g id="line2d_5">
      <g>
       <use style="stroke:#000000;stroke-width:0.8;" x="287.403441" xlink:href="#mcba1e2cc1b" y="252"/>
      </g>
     </g>
     <g id="text_5">
      <!-- 80 -->
      <defs>
       <path d="M 31.78125 34.625 
Q 24.75 34.625 20.71875 30.859375 
Q 16.703125 27.09375 16.703125 20.515625 
Q 16.703125 13.921875 20.71875 10.15625 
Q 24.75 6.390625 31.78125 6.390625 
Q 38.8125 6.390625 42.859375 10.171875 
Q 46.921875 13.96875 46.921875 20.515625 
Q 46.921875 27.09375 42.890625 30.859375 
Q 38.875 34.625 31.78125 34.625 
z
M 21.921875 38.8125 
Q 15.578125 40.375 12.03125 44.71875 
Q 8.5 49.078125 8.5 55.328125 
Q 8.5 64.0625 14.71875 69.140625 
Q 20.953125 74.21875 31.78125 74.21875 
Q 42.671875 74.21875 48.875 69.140625 
Q 55.078125 64.0625 55.078125 55.328125 
Q 55.078125 49.078125 51.53125 44.71875 
Q 48 40.375 41.703125 38.8125 
Q 48.828125 37.15625 52.796875 32.3125 
Q 56.78125 27.484375 56.78125 20.515625 
Q 56.78125 9.90625 50.3125 4.234375 
Q 43.84375 -1.421875 31.78125 -1.421875 
Q 19.734375 -1.421875 13.25 4.234375 
Q 6.78125 9.90625 6.78125 20.515625 
Q 6.78125 27.484375 10.78125 32.3125 
Q 14.796875 37.15625 21.921875 38.8125 
z
M 18.3125 54.390625 
Q 18.3125 48.734375 21.84375 45.5625 
Q 25.390625 42.390625 31.78125 42.390625 
Q 38.140625 42.390625 41.71875 45.5625 
Q 45.3125 48.734375 45.3125 54.390625 
Q 45.3125 60.0625 41.71875 63.234375 
Q 38.140625 66.40625 31.78125 66.40625 
Q 25.390625 66.40625 21.84375 63.234375 
Q 18.3125 60.0625 18.3125 54.390625 
z
" id="DejaVuSans-56"/>
      </defs>
      <g transform="translate(281.040941 266.598437)scale(0.1 -0.1)">
       <use xlink:href="#DejaVuSans-56"/>
       <use x="63.623047" xlink:href="#DejaVuSans-48"/>
      </g>
     </g>
    </g>
    <g id="xtick_6">
     <g id="line2d_6">
      <g>
       <use style="stroke:#000000;stroke-width:0.8;" x="334.46028" xlink:href="#mcba1e2cc1b" y="252"/>
      </g>
     </g>
     <g id="text_6">
      <!-- 100 -->
      <defs>
       <path d="M 12.40625 8.296875 
L 28.515625 8.296875 
L 28.515625 63.921875 
L 10.984375 60.40625 
L 10.984375 69.390625 
L 28.421875 72.90625 
L 38.28125 72.90625 
L 38.28125 8.296875 
L 54.390625 8.296875 
L 54.390625 0 
L 12.40625 0 
z
" id="DejaVuSans-49"/>
      </defs>
      <g transform="translate(324.91653 266.598437)scale(0.1 -0.1)">
       <use xlink:href="#DejaVuSans-49"/>
       <use x="63.623047" xlink:href="#DejaVuSans-48"/>
       <use x="127.246094" xlink:href="#DejaVuSans-48"/>
      </g>
     </g>
    </g>
   </g>
   <g id="matplotlib.axis_2">
    <g id="ytick_1">
     <g id="line2d_7">
      <defs>
       <path d="M 0 0 
L -3.5 0 
" id="me313562d5e" style="stroke:#000000;stroke-width:0.8;"/>
      </defs>
      <g>
       <use style="stroke:#000000;stroke-width:0.8;" x="90" xlink:href="#me313562d5e" y="242.116364"/>
      </g>
     </g>
     <g id="text_7">
      <!-- 0 -->
      <g transform="translate(76.6375 245.915582)scale(0.1 -0.1)">
       <use xlink:href="#DejaVuSans-48"/>
      </g>
     </g>
    </g>
    <g id="ytick_2">
     <g id="line2d_8">
      <g>
       <use style="stroke:#000000;stroke-width:0.8;" x="90" xlink:href="#me313562d5e" y="202.182479"/>
      </g>
     </g>
     <g id="text_8">
      <!-- 20 -->
      <g transform="translate(70.275 205.981698)scale(0.1 -0.1)">
       <use xlink:href="#DejaVuSans-50"/>
       <use x="63.623047" xlink:href="#DejaVuSans-48"/>
      </g>
     </g>
    </g>
    <g id="ytick_3">
     <g id="line2d_9">
      <g>
       <use style="stroke:#000000;stroke-width:0.8;" x="90" xlink:href="#me313562d5e" y="162.248595"/>
      </g>
     </g>
     <g id="text_9">
      <!-- 40 -->
      <g transform="translate(70.275 166.047814)scale(0.1 -0.1)">
       <use xlink:href="#DejaVuSans-52"/>
       <use x="63.623047" xlink:href="#DejaVuSans-48"/>
      </g>
     </g>
    </g>
    <g id="ytick_4">
     <g id="line2d_10">
      <g>
       <use style="stroke:#000000;stroke-width:0.8;" x="90" xlink:href="#me313562d5e" y="122.314711"/>
      </g>
     </g>
     <g id="text_10">
      <!-- 60 -->
      <g transform="translate(70.275 126.113929)scale(0.1 -0.1)">
       <use xlink:href="#DejaVuSans-54"/>
       <use x="63.623047" xlink:href="#DejaVuSans-48"/>
      </g>
     </g>
    </g>
    <g id="ytick_5">
     <g id="line2d_11">
      <g>
       <use style="stroke:#000000;stroke-width:0.8;" x="90" xlink:href="#me313562d5e" y="82.380826"/>
      </g>
     </g>
     <g id="text_11">
      <!-- 80 -->
      <g transform="translate(70.275 86.180045)scale(0.1 -0.1)">
       <use xlink:href="#DejaVuSans-56"/>
       <use x="63.623047" xlink:href="#DejaVuSans-48"/>
      </g>
     </g>
    </g>
    <g id="ytick_6">
     <g id="line2d_12">
      <g>
       <use style="stroke:#000000;stroke-width:0.8;" x="90" xlink:href="#me313562d5e" y="42.446942"/>
      </g>
     </g>
     <g id="text_12">
      <!-- 100 -->
      <g transform="translate(63.9125 46.246161)scale(0.1 -0.1)">
       <use xlink:href="#DejaVuSans-49"/>
       <use x="63.623047" xlink:href="#DejaVuSans-48"/>
       <use x="127.246094" xlink:href="#DejaVuSans-48"/>
      </g>
     </g>
    </g>
   </g>
   <g id="line2d_13">
    <path clip-path="url(#pdfae330ce9)" d="M 214.46534 112.33124 
L 146.232923 112.33124 
L 254.463653 126.308099 
L 207.406814 134.294876 
L 141.527239 66.407273 
L 172.114185 212.16595 
L 162.702817 162.248595 
L 256.816495 238.122975 
L 254.463653 208.172562 
L 127.410187 156.258512 
L 209.759656 54.427107 
L 188.584078 80.384132 
L 127.410187 202.182479 
L 273.286389 160.251901 
L 315.637544 110.334545 
L 315.637544 196.192397 
L 157.997133 140.284959 
L 122.704503 66.407273 
L 303.873334 204.179174 
L 219.171024 204.179174 
L 280.344915 178.222149 
L 186.231236 202.182479 
L 179.17271 222.149421 
L 327.401754 210.169256 
L 219.171024 52.430413 
L 228.582392 78.387438 
L 150.938607 120.318017 
L 294.461967 98.35438 
L 245.052285 230.136198 
L 129.763029 166.241983 
L 263.875021 44.443636 
L 141.527239 58.420496 
L 219.171024 216.159339 
L 261.522179 48.437025 
L 120.351661 128.304793 
L 108.587452 88.370909 
L 242.699443 184.212231 
L 179.17271 186.208926 
L 101.528926 122.314711 
L 110.940293 96.357686 
L 325.048912 104.344463 
L 179.17271 220.152727 
L 322.69607 96.357686 
L 101.528926 194.195702 
L 261.522179 204.179174 
L 320.343228 116.324628 
L 139.174397 214.162645 
L 219.171024 192.199008 
L 219.171024 110.334545 
L 320.343228 50.433719 
L 249.757969 146.275041 
L 207.406814 100.351074 
L 200.348288 130.301488 
L 223.876708 50.433719 
L 150.938607 218.156033 
L 263.875021 212.16595 
L 245.052285 74.39405 
L 280.344915 208.172562 
L 308.579018 170.235372 
L 275.639231 84.377521 
L 150.938607 184.212231 
L 285.050599 64.410579 
L 268.580705 214.162645 
L 332.107438 242.116364 
L 327.401754 102.347769 
L 329.754596 66.407273 
L 117.998819 186.208926 
L 122.704503 216.159339 
L 240.346601 118.321322 
L 120.351661 228.139504 
L 266.227863 226.14281 
L 212.112498 224.146116 
L 202.70113 56.423802 
L 197.995446 120.318017 
L 247.405127 172.232066 
L 179.17271 56.423802 
L 263.875021 82.380826 
L 287.403441 130.301488 
L 313.284702 82.380826 
L 155.644291 104.344463 
L 113.293135 188.20562 
L 117.998819 242.116364 
L 221.523866 84.377521 
L 183.878394 208.172562 
L 205.053972 180.218843 
L 181.525552 214.162645 
L 162.702817 240.119669 
L 209.759656 66.407273 
L 219.171024 80.384132 
L 160.349975 74.39405 
" style="fill:none;stroke:#ff0000;stroke-linecap:square;stroke-width:1.5;"/>
    <defs>
     <path d="M 0 1.5 
C 0.397805 1.5 0.77937 1.341951 1.06066 1.06066 
C 1.341951 0.77937 1.5 0.397805 1.5 0 
C 1.5 -0.397805 1.341951 -0.77937 1.06066 -1.06066 
C 0.77937 -1.341951 0.397805 -1.5 0 -1.5 
C -0.397805 -1.5 -0.77937 -1.341951 -1.06066 -1.06066 
C -1.341951 -0.77937 -1.5 -0.397805 -1.5 0 
C -1.5 0.397805 -1.341951 0.77937 -1.06066 1.06066 
C -0.77937 1.341951 -0.397805 1.5 0 1.5 
z
" id="m5c68e12c19" style="stroke:#ff0000;"/>
    </defs>
    <g clip-path="url(#pdfae330ce9)">
     <use style="fill:#ff0000;stroke:#ff0000;" x="214.46534" xlink:href="#m5c68e12c19" y="112.33124"/>
     <use style="fill:#ff0000;stroke:#ff0000;" x="146.232923" xlink:href="#m5c68e12c19" y="112.33124"/>
     <use style="fill:#ff0000;stroke:#ff0000;" x="254.463653" xlink:href="#m5c68e12c19" y="126.308099"/>
     <use style="fill:#ff0000;stroke:#ff0000;" x="207.406814" xlink:href="#m5c68e12c19" y="134.294876"/>
     <use style="fill:#ff0000;stroke:#ff0000;" x="141.527239" xlink:href="#m5c68e12c19" y="66.407273"/>
     <use style="fill:#ff0000;stroke:#ff0000;" x="172.114185" xlink:href="#m5c68e12c19" y="212.16595"/>
     <use style="fill:#ff0000;stroke:#ff0000;" x="162.702817" xlink:href="#m5c68e12c19" y="162.248595"/>
     <use style="fill:#ff0000;stroke:#ff0000;" x="256.816495" xlink:href="#m5c68e12c19" y="238.122975"/>
     <use style="fill:#ff0000;stroke:#ff0000;" x="254.463653" xlink:href="#m5c68e12c19" y="208.172562"/>
     <use style="fill:#ff0000;stroke:#ff0000;" x="127.410187" xlink:href="#m5c68e12c19" y="156.258512"/>
     <use style="fill:#ff0000;stroke:#ff0000;" x="209.759656" xlink:href="#m5c68e12c19" y="54.427107"/>
     <use style="fill:#ff0000;stroke:#ff0000;" x="188.584078" xlink:href="#m5c68e12c19" y="80.384132"/>
     <use style="fill:#ff0000;stroke:#ff0000;" x="127.410187" xlink:href="#m5c68e12c19" y="202.182479"/>
     <use style="fill:#ff0000;stroke:#ff0000;" x="273.286389" xlink:href="#m5c68e12c19" y="160.251901"/>
     <use style="fill:#ff0000;stroke:#ff0000;" x="315.637544" xlink:href="#m5c68e12c19" y="110.334545"/>
     <use style="fill:#ff0000;stroke:#ff0000;" x="315.637544" xlink:href="#m5c68e12c19" y="196.192397"/>
     <use style="fill:#ff0000;stroke:#ff0000;" x="157.997133" xlink:href="#m5c68e12c19" y="140.284959"/>
     <use style="fill:#ff0000;stroke:#ff0000;" x="122.704503" xlink:href="#m5c68e12c19" y="66.407273"/>
     <use style="fill:#ff0000;stroke:#ff0000;" x="303.873334" xlink:href="#m5c68e12c19" y="204.179174"/>
     <use style="fill:#ff0000;stroke:#ff0000;" x="219.171024" xlink:href="#m5c68e12c19" y="204.179174"/>
     <use style="fill:#ff0000;stroke:#ff0000;" x="280.344915" xlink:href="#m5c68e12c19" y="178.222149"/>
     <use style="fill:#ff0000;stroke:#ff0000;" x="186.231236" xlink:href="#m5c68e12c19" y="202.182479"/>
     <use style="fill:#ff0000;stroke:#ff0000;" x="179.17271" xlink:href="#m5c68e12c19" y="222.149421"/>
     <use style="fill:#ff0000;stroke:#ff0000;" x="327.401754" xlink:href="#m5c68e12c19" y="210.169256"/>
     <use style="fill:#ff0000;stroke:#ff0000;" x="219.171024" xlink:href="#m5c68e12c19" y="52.430413"/>
     <use style="fill:#ff0000;stroke:#ff0000;" x="228.582392" xlink:href="#m5c68e12c19" y="78.387438"/>
     <use style="fill:#ff0000;stroke:#ff0000;" x="150.938607" xlink:href="#m5c68e12c19" y="120.318017"/>
     <use style="fill:#ff0000;stroke:#ff0000;" x="294.461967" xlink:href="#m5c68e12c19" y="98.35438"/>
     <use style="fill:#ff0000;stroke:#ff0000;" x="245.052285" xlink:href="#m5c68e12c19" y="230.136198"/>
     <use style="fill:#ff0000;stroke:#ff0000;" x="129.763029" xlink:href="#m5c68e12c19" y="166.241983"/>
     <use style="fill:#ff0000;stroke:#ff0000;" x="263.875021" xlink:href="#m5c68e12c19" y="44.443636"/>
     <use style="fill:#ff0000;stroke:#ff0000;" x="141.527239" xlink:href="#m5c68e12c19" y="58.420496"/>
     <use style="fill:#ff0000;stroke:#ff0000;" x="219.171024" xlink:href="#m5c68e12c19" y="216.159339"/>
     <use style="fill:#ff0000;stroke:#ff0000;" x="261.522179" xlink:href="#m5c68e12c19" y="48.437025"/>
     <use style="fill:#ff0000;stroke:#ff0000;" x="120.351661" xlink:href="#m5c68e12c19" y="128.304793"/>
     <use style="fill:#ff0000;stroke:#ff0000;" x="108.587452" xlink:href="#m5c68e12c19" y="88.370909"/>
     <use style="fill:#ff0000;stroke:#ff0000;" x="242.699443" xlink:href="#m5c68e12c19" y="184.212231"/>
     <use style="fill:#ff0000;stroke:#ff0000;" x="179.17271" xlink:href="#m5c68e12c19" y="186.208926"/>
     <use style="fill:#ff0000;stroke:#ff0000;" x="101.528926" xlink:href="#m5c68e12c19" y="122.314711"/>
     <use style="fill:#ff0000;stroke:#ff0000;" x="110.940293" xlink:href="#m5c68e12c19" y="96.357686"/>
     <use style="fill:#ff0000;stroke:#ff0000;" x="325.048912" xlink:href="#m5c68e12c19" y="104.344463"/>
     <use style="fill:#ff0000;stroke:#ff0000;" x="179.17271" xlink:href="#m5c68e12c19" y="220.152727"/>
     <use style="fill:#ff0000;stroke:#ff0000;" x="322.69607" xlink:href="#m5c68e12c19" y="96.357686"/>
     <use style="fill:#ff0000;stroke:#ff0000;" x="101.528926" xlink:href="#m5c68e12c19" y="194.195702"/>
     <use style="fill:#ff0000;stroke:#ff0000;" x="261.522179" xlink:href="#m5c68e12c19" y="204.179174"/>
     <use style="fill:#ff0000;stroke:#ff0000;" x="320.343228" xlink:href="#m5c68e12c19" y="116.324628"/>
     <use style="fill:#ff0000;stroke:#ff0000;" x="139.174397" xlink:href="#m5c68e12c19" y="214.162645"/>
     <use style="fill:#ff0000;stroke:#ff0000;" x="219.171024" xlink:href="#m5c68e12c19" y="192.199008"/>
     <use style="fill:#ff0000;stroke:#ff0000;" x="219.171024" xlink:href="#m5c68e12c19" y="110.334545"/>
     <use style="fill:#ff0000;stroke:#ff0000;" x="320.343228" xlink:href="#m5c68e12c19" y="50.433719"/>
     <use style="fill:#ff0000;stroke:#ff0000;" x="249.757969" xlink:href="#m5c68e12c19" y="146.275041"/>
     <use style="fill:#ff0000;stroke:#ff0000;" x="207.406814" xlink:href="#m5c68e12c19" y="100.351074"/>
     <use style="fill:#ff0000;stroke:#ff0000;" x="200.348288" xlink:href="#m5c68e12c19" y="130.301488"/>
     <use style="fill:#ff0000;stroke:#ff0000;" x="223.876708" xlink:href="#m5c68e12c19" y="50.433719"/>
     <use style="fill:#ff0000;stroke:#ff0000;" x="150.938607" xlink:href="#m5c68e12c19" y="218.156033"/>
     <use style="fill:#ff0000;stroke:#ff0000;" x="263.875021" xlink:href="#m5c68e12c19" y="212.16595"/>
     <use style="fill:#ff0000;stroke:#ff0000;" x="245.052285" xlink:href="#m5c68e12c19" y="74.39405"/>
     <use style="fill:#ff0000;stroke:#ff0000;" x="280.344915" xlink:href="#m5c68e12c19" y="208.172562"/>
     <use style="fill:#ff0000;stroke:#ff0000;" x="308.579018" xlink:href="#m5c68e12c19" y="170.235372"/>
     <use style="fill:#ff0000;stroke:#ff0000;" x="275.639231" xlink:href="#m5c68e12c19" y="84.377521"/>
     <use style="fill:#ff0000;stroke:#ff0000;" x="150.938607" xlink:href="#m5c68e12c19" y="184.212231"/>
     <use style="fill:#ff0000;stroke:#ff0000;" x="285.050599" xlink:href="#m5c68e12c19" y="64.410579"/>
     <use style="fill:#ff0000;stroke:#ff0000;" x="268.580705" xlink:href="#m5c68e12c19" y="214.162645"/>
     <use style="fill:#ff0000;stroke:#ff0000;" x="332.107438" xlink:href="#m5c68e12c19" y="242.116364"/>
     <use style="fill:#ff0000;stroke:#ff0000;" x="327.401754" xlink:href="#m5c68e12c19" y="102.347769"/>
     <use style="fill:#ff0000;stroke:#ff0000;" x="329.754596" xlink:href="#m5c68e12c19" y="66.407273"/>
     <use style="fill:#ff0000;stroke:#ff0000;" x="117.998819" xlink:href="#m5c68e12c19" y="186.208926"/>
     <use style="fill:#ff0000;stroke:#ff0000;" x="122.704503" xlink:href="#m5c68e12c19" y="216.159339"/>
     <use style="fill:#ff0000;stroke:#ff0000;" x="240.346601" xlink:href="#m5c68e12c19" y="118.321322"/>
     <use style="fill:#ff0000;stroke:#ff0000;" x="120.351661" xlink:href="#m5c68e12c19" y="228.139504"/>
     <use style="fill:#ff0000;stroke:#ff0000;" x="266.227863" xlink:href="#m5c68e12c19" y="226.14281"/>
     <use style="fill:#ff0000;stroke:#ff0000;" x="212.112498" xlink:href="#m5c68e12c19" y="224.146116"/>
     <use style="fill:#ff0000;stroke:#ff0000;" x="202.70113" xlink:href="#m5c68e12c19" y="56.423802"/>
     <use style="fill:#ff0000;stroke:#ff0000;" x="197.995446" xlink:href="#m5c68e12c19" y="120.318017"/>
     <use style="fill:#ff0000;stroke:#ff0000;" x="247.405127" xlink:href="#m5c68e12c19" y="172.232066"/>
     <use style="fill:#ff0000;stroke:#ff0000;" x="179.17271" xlink:href="#m5c68e12c19" y="56.423802"/>
     <use style="fill:#ff0000;stroke:#ff0000;" x="263.875021" xlink:href="#m5c68e12c19" y="82.380826"/>
     <use style="fill:#ff0000;stroke:#ff0000;" x="287.403441" xlink:href="#m5c68e12c19" y="130.301488"/>
     <use style="fill:#ff0000;stroke:#ff0000;" x="313.284702" xlink:href="#m5c68e12c19" y="82.380826"/>
     <use style="fill:#ff0000;stroke:#ff0000;" x="155.644291" xlink:href="#m5c68e12c19" y="104.344463"/>
     <use style="fill:#ff0000;stroke:#ff0000;" x="113.293135" xlink:href="#m5c68e12c19" y="188.20562"/>
     <use style="fill:#ff0000;stroke:#ff0000;" x="117.998819" xlink:href="#m5c68e12c19" y="242.116364"/>
     <use style="fill:#ff0000;stroke:#ff0000;" x="221.523866" xlink:href="#m5c68e12c19" y="84.377521"/>
     <use style="fill:#ff0000;stroke:#ff0000;" x="183.878394" xlink:href="#m5c68e12c19" y="208.172562"/>
     <use style="fill:#ff0000;stroke:#ff0000;" x="205.053972" xlink:href="#m5c68e12c19" y="180.218843"/>
     <use style="fill:#ff0000;stroke:#ff0000;" x="181.525552" xlink:href="#m5c68e12c19" y="214.162645"/>
     <use style="fill:#ff0000;stroke:#ff0000;" x="162.702817" xlink:href="#m5c68e12c19" y="240.119669"/>
     <use style="fill:#ff0000;stroke:#ff0000;" x="209.759656" xlink:href="#m5c68e12c19" y="66.407273"/>
     <use style="fill:#ff0000;stroke:#ff0000;" x="219.171024" xlink:href="#m5c68e12c19" y="80.384132"/>
     <use style="fill:#ff0000;stroke:#ff0000;" x="160.349975" xlink:href="#m5c68e12c19" y="74.39405"/>
    </g>
   </g>
   <g id="patch_3">
    <path d="M 90 252 
L 90 34.56 
" style="fill:none;stroke:#000000;stroke-linecap:square;stroke-linejoin:miter;stroke-width:0.8;"/>
   </g>
   <g id="patch_4">
    <path d="M 343.636364 252 
L 343.636364 34.56 
" style="fill:none;stroke:#000000;stroke-linecap:square;stroke-linejoin:miter;stroke-width:0.8;"/>
   </g>
   <g id="patch_5">
    <path d="M 90 252 
L 343.636364 252 
" style="fill:none;stroke:#000000;stroke-linecap:square;stroke-linejoin:miter;stroke-width:0.8;"/>
   </g>
   <g id="patch_6">
    <path d="M 90 34.56 
L 343.636364 34.56 
" style="fill:none;stroke:#000000;stroke-linecap:square;stroke-linejoin:miter;stroke-width:0.8;"/>
   </g>
   <g id="text_13">
    <!-- Generation 0, fitness: 4615.62 -->
    <defs>
     <path d="M 59.515625 10.40625 
L 59.515625 29.984375 
L 43.40625 29.984375 
L 43.40625 38.09375 
L 69.28125 38.09375 
L 69.28125 6.78125 
Q 63.578125 2.734375 56.6875 0.65625 
Q 49.8125 -1.421875 42 -1.421875 
Q 24.90625 -1.421875 15.25 8.5625 
Q 5.609375 18.5625 5.609375 36.375 
Q 5.609375 54.25 15.25 64.234375 
Q 24.90625 74.21875 42 74.21875 
Q 49.125 74.21875 55.546875 72.453125 
Q 61.96875 70.703125 67.390625 67.28125 
L 67.390625 56.78125 
Q 61.921875 61.421875 55.765625 63.765625 
Q 49.609375 66.109375 42.828125 66.109375 
Q 29.4375 66.109375 22.71875 58.640625 
Q 16.015625 51.171875 16.015625 36.375 
Q 16.015625 21.625 22.71875 14.15625 
Q 29.4375 6.6875 42.828125 6.6875 
Q 48.046875 6.6875 52.140625 7.59375 
Q 56.25 8.5 59.515625 10.40625 
z
" id="DejaVuSans-71"/>
     <path d="M 56.203125 29.59375 
L 56.203125 25.203125 
L 14.890625 25.203125 
Q 15.484375 15.921875 20.484375 11.0625 
Q 25.484375 6.203125 34.421875 6.203125 
Q 39.59375 6.203125 44.453125 7.46875 
Q 49.3125 8.734375 54.109375 11.28125 
L 54.109375 2.78125 
Q 49.265625 0.734375 44.1875 -0.34375 
Q 39.109375 -1.421875 33.890625 -1.421875 
Q 20.796875 -1.421875 13.15625 6.1875 
Q 5.515625 13.8125 5.515625 26.8125 
Q 5.515625 40.234375 12.765625 48.109375 
Q 20.015625 56 32.328125 56 
Q 43.359375 56 49.78125 48.890625 
Q 56.203125 41.796875 56.203125 29.59375 
z
M 47.21875 32.234375 
Q 47.125 39.59375 43.09375 43.984375 
Q 39.0625 48.390625 32.421875 48.390625 
Q 24.90625 48.390625 20.390625 44.140625 
Q 15.875 39.890625 15.1875 32.171875 
z
" id="DejaVuSans-101"/>
     <path d="M 54.890625 33.015625 
L 54.890625 0 
L 45.90625 0 
L 45.90625 32.71875 
Q 45.90625 40.484375 42.875 44.328125 
Q 39.84375 48.1875 33.796875 48.1875 
Q 26.515625 48.1875 22.3125 43.546875 
Q 18.109375 38.921875 18.109375 30.90625 
L 18.109375 0 
L 9.078125 0 
L 9.078125 54.6875 
L 18.109375 54.6875 
L 18.109375 46.1875 
Q 21.34375 51.125 25.703125 53.5625 
Q 30.078125 56 35.796875 56 
Q 45.21875 56 50.046875 50.171875 
Q 54.890625 44.34375 54.890625 33.015625 
z
" id="DejaVuSans-110"/>
     <path d="M 41.109375 46.296875 
Q 39.59375 47.171875 37.8125 47.578125 
Q 36.03125 48 33.890625 48 
Q 26.265625 48 22.1875 43.046875 
Q 18.109375 38.09375 18.109375 28.8125 
L 18.109375 0 
L 9.078125 0 
L 9.078125 54.6875 
L 18.109375 54.6875 
L 18.109375 46.1875 
Q 20.953125 51.171875 25.484375 53.578125 
Q 30.03125 56 36.53125 56 
Q 37.453125 56 38.578125 55.875 
Q 39.703125 55.765625 41.0625 55.515625 
z
" id="DejaVuSans-114"/>
     <path d="M 34.28125 27.484375 
Q 23.390625 27.484375 19.1875 25 
Q 14.984375 22.515625 14.984375 16.5 
Q 14.984375 11.71875 18.140625 8.90625 
Q 21.296875 6.109375 26.703125 6.109375 
Q 34.1875 6.109375 38.703125 11.40625 
Q 43.21875 16.703125 43.21875 25.484375 
L 43.21875 27.484375 
z
M 52.203125 31.203125 
L 52.203125 0 
L 43.21875 0 
L 43.21875 8.296875 
Q 40.140625 3.328125 35.546875 0.953125 
Q 30.953125 -1.421875 24.3125 -1.421875 
Q 15.921875 -1.421875 10.953125 3.296875 
Q 6 8.015625 6 15.921875 
Q 6 25.140625 12.171875 29.828125 
Q 18.359375 34.515625 30.609375 34.515625 
L 43.21875 34.515625 
L 43.21875 35.40625 
Q 43.21875 41.609375 39.140625 45 
Q 35.0625 48.390625 27.6875 48.390625 
Q 23 48.390625 18.546875 47.265625 
Q 14.109375 46.140625 10.015625 43.890625 
L 10.015625 52.203125 
Q 14.9375 54.109375 19.578125 55.046875 
Q 24.21875 56 28.609375 56 
Q 40.484375 56 46.34375 49.84375 
Q 52.203125 43.703125 52.203125 31.203125 
z
" id="DejaVuSans-97"/>
     <path d="M 18.3125 70.21875 
L 18.3125 54.6875 
L 36.8125 54.6875 
L 36.8125 47.703125 
L 18.3125 47.703125 
L 18.3125 18.015625 
Q 18.3125 11.328125 20.140625 9.421875 
Q 21.96875 7.515625 27.59375 7.515625 
L 36.8125 7.515625 
L 36.8125 0 
L 27.59375 0 
Q 17.1875 0 13.234375 3.875 
Q 9.28125 7.765625 9.28125 18.015625 
L 9.28125 47.703125 
L 2.6875 47.703125 
L 2.6875 54.6875 
L 9.28125 54.6875 
L 9.28125 70.21875 
z
" id="DejaVuSans-116"/>
     <path d="M 9.421875 54.6875 
L 18.40625 54.6875 
L 18.40625 0 
L 9.421875 0 
z
M 9.421875 75.984375 
L 18.40625 75.984375 
L 18.40625 64.59375 
L 9.421875 64.59375 
z
" id="DejaVuSans-105"/>
     <path d="M 30.609375 48.390625 
Q 23.390625 48.390625 19.1875 42.75 
Q 14.984375 37.109375 14.984375 27.296875 
Q 14.984375 17.484375 19.15625 11.84375 
Q 23.34375 6.203125 30.609375 6.203125 
Q 37.796875 6.203125 41.984375 11.859375 
Q 46.1875 17.53125 46.1875 27.296875 
Q 46.1875 37.015625 41.984375 42.703125 
Q 37.796875 48.390625 30.609375 48.390625 
z
M 30.609375 56 
Q 42.328125 56 49.015625 48.375 
Q 55.71875 40.765625 55.71875 27.296875 
Q 55.71875 13.875 49.015625 6.21875 
Q 42.328125 -1.421875 30.609375 -1.421875 
Q 18.84375 -1.421875 12.171875 6.21875 
Q 5.515625 13.875 5.515625 27.296875 
Q 5.515625 40.765625 12.171875 48.375 
Q 18.84375 56 30.609375 56 
z
" id="DejaVuSans-111"/>
     <path id="DejaVuSans-32"/>
     <path d="M 11.71875 12.40625 
L 22.015625 12.40625 
L 22.015625 4 
L 14.015625 -11.625 
L 7.71875 -11.625 
L 11.71875 4 
z
" id="DejaVuSans-44"/>
     <path d="M 37.109375 75.984375 
L 37.109375 68.5 
L 28.515625 68.5 
Q 23.6875 68.5 21.796875 66.546875 
Q 19.921875 64.59375 19.921875 59.515625 
L 19.921875 54.6875 
L 34.71875 54.6875 
L 34.71875 47.703125 
L 19.921875 47.703125 
L 19.921875 0 
L 10.890625 0 
L 10.890625 47.703125 
L 2.296875 47.703125 
L 2.296875 54.6875 
L 10.890625 54.6875 
L 10.890625 58.5 
Q 10.890625 67.625 15.140625 71.796875 
Q 19.390625 75.984375 28.609375 75.984375 
z
" id="DejaVuSans-102"/>
     <path d="M 44.28125 53.078125 
L 44.28125 44.578125 
Q 40.484375 46.53125 36.375 47.5 
Q 32.28125 48.484375 27.875 48.484375 
Q 21.1875 48.484375 17.84375 46.4375 
Q 14.5 44.390625 14.5 40.28125 
Q 14.5 37.15625 16.890625 35.375 
Q 19.28125 33.59375 26.515625 31.984375 
L 29.59375 31.296875 
Q 39.15625 29.25 43.1875 25.515625 
Q 47.21875 21.78125 47.21875 15.09375 
Q 47.21875 7.46875 41.1875 3.015625 
Q 35.15625 -1.421875 24.609375 -1.421875 
Q 20.21875 -1.421875 15.453125 -0.5625 
Q 10.6875 0.296875 5.421875 2 
L 5.421875 11.28125 
Q 10.40625 8.6875 15.234375 7.390625 
Q 20.0625 6.109375 24.8125 6.109375 
Q 31.15625 6.109375 34.5625 8.28125 
Q 37.984375 10.453125 37.984375 14.40625 
Q 37.984375 18.0625 35.515625 20.015625 
Q 33.0625 21.96875 24.703125 23.78125 
L 21.578125 24.515625 
Q 13.234375 26.265625 9.515625 29.90625 
Q 5.8125 33.546875 5.8125 39.890625 
Q 5.8125 47.609375 11.28125 51.796875 
Q 16.75 56 26.8125 56 
Q 31.78125 56 36.171875 55.265625 
Q 40.578125 54.546875 44.28125 53.078125 
z
" id="DejaVuSans-115"/>
     <path d="M 11.71875 12.40625 
L 22.015625 12.40625 
L 22.015625 0 
L 11.71875 0 
z
M 11.71875 51.703125 
L 22.015625 51.703125 
L 22.015625 39.3125 
L 11.71875 39.3125 
z
" id="DejaVuSans-58"/>
     <path d="M 10.796875 72.90625 
L 49.515625 72.90625 
L 49.515625 64.59375 
L 19.828125 64.59375 
L 19.828125 46.734375 
Q 21.96875 47.46875 24.109375 47.828125 
Q 26.265625 48.1875 28.421875 48.1875 
Q 40.625 48.1875 47.75 41.5 
Q 54.890625 34.8125 54.890625 23.390625 
Q 54.890625 11.625 47.5625 5.09375 
Q 40.234375 -1.421875 26.90625 -1.421875 
Q 22.3125 -1.421875 17.546875 -0.640625 
Q 12.796875 0.140625 7.71875 1.703125 
L 7.71875 11.625 
Q 12.109375 9.234375 16.796875 8.0625 
Q 21.484375 6.890625 26.703125 6.890625 
Q 35.15625 6.890625 40.078125 11.328125 
Q 45.015625 15.765625 45.015625 23.390625 
Q 45.015625 31 40.078125 35.4375 
Q 35.15625 39.890625 26.703125 39.890625 
Q 22.75 39.890625 18.8125 39.015625 
Q 14.890625 38.140625 10.796875 36.28125 
z
" id="DejaVuSans-53"/>
     <path d="M 10.6875 12.40625 
L 21 12.40625 
L 21 0 
L 10.6875 0 
z
" id="DejaVuSans-46"/>
    </defs>
    <g transform="translate(125.191619 28.56)scale(0.12 -0.12)">
     <use xlink:href="#DejaVuSans-71"/>
     <use x="77.490234" xlink:href="#DejaVuSans-101"/>
     <use x="139.013672" xlink:href="#DejaVuSans-110"/>
     <use x="202.392578" xlink:href="#DejaVuSans-101"/>
     <use x="263.916016" xlink:href="#DejaVuSans-114"/>
     <use x="305.029297" xlink:href="#DejaVuSans-97"/>
     <use x="366.308594" xlink:href="#DejaVuSans-116"/>
     <use x="405.517578" xlink:href="#DejaVuSans-105"/>
     <use x="433.300781" xlink:href="#DejaVuSans-111"/>
     <use x="494.482422" xlink:href="#DejaVuSans-110"/>
     <use x="557.861328" xlink:href="#DejaVuSans-32"/>
     <use x="589.648438" xlink:href="#DejaVuSans-48"/>
     <use x="653.271484" xlink:href="#DejaVuSans-44"/>
     <use x="685.058594" xlink:href="#DejaVuSans-32"/>
     <use x="716.845703" xlink:href="#DejaVuSans-102"/>
     <use x="752.050781" xlink:href="#DejaVuSans-105"/>
     <use x="779.833984" xlink:href="#DejaVuSans-116"/>
     <use x="819.042969" xlink:href="#DejaVuSans-110"/>
     <use x="882.421875" xlink:href="#DejaVuSans-101"/>
     <use x="943.945312" xlink:href="#DejaVuSans-115"/>
     <use x="996.044922" xlink:href="#DejaVuSans-115"/>
     <use x="1048.144531" xlink:href="#DejaVuSans-58"/>
     <use x="1081.835938" xlink:href="#DejaVuSans-32"/>
     <use x="1113.623047" xlink:href="#DejaVuSans-52"/>
     <use x="1177.246094" xlink:href="#DejaVuSans-54"/>
     <use x="1240.869141" xlink:href="#DejaVuSans-49"/>
     <use x="1304.492188" xlink:href="#DejaVuSans-53"/>
     <use x="1368.115234" xlink:href="#DejaVuSans-46"/>
     <use x="1399.902344" xlink:href="#DejaVuSans-54"/>
     <use x="1463.525391" xlink:href="#DejaVuSans-50"/>
    </g>
   </g>
  </g>
  <g id="axes_2">
   <g id="patch_7">
    <path d="M 394.363636 252 
L 648 252 
L 648 34.56 
L 394.363636 34.56 
z
" style="fill:#ffffff;"/>
   </g>
   <g id="matplotlib.axis_3">
    <g id="xtick_7">
     <g id="line2d_14">
      <g>
       <use style="stroke:#000000;stroke-width:0.8;" x="403.53972" xlink:href="#mcba1e2cc1b" y="252"/>
      </g>
     </g>
     <g id="text_14">
      <!-- 0 -->
      <g transform="translate(400.35847 266.598437)scale(0.1 -0.1)">
       <use xlink:href="#DejaVuSans-48"/>
      </g>
     </g>
    </g>
    <g id="xtick_8">
     <g id="line2d_15">
      <g>
       <use style="stroke:#000000;stroke-width:0.8;" x="450.596559" xlink:href="#mcba1e2cc1b" y="252"/>
      </g>
     </g>
     <g id="text_15">
      <!-- 20 -->
      <g transform="translate(444.234059 266.598437)scale(0.1 -0.1)">
       <use xlink:href="#DejaVuSans-50"/>
       <use x="63.623047" xlink:href="#DejaVuSans-48"/>
      </g>
     </g>
    </g>
    <g id="xtick_9">
     <g id="line2d_16">
      <g>
       <use style="stroke:#000000;stroke-width:0.8;" x="497.653399" xlink:href="#mcba1e2cc1b" y="252"/>
      </g>
     </g>
     <g id="text_16">
      <!-- 40 -->
      <g transform="translate(491.290899 266.598437)scale(0.1 -0.1)">
       <use xlink:href="#DejaVuSans-52"/>
       <use x="63.623047" xlink:href="#DejaVuSans-48"/>
      </g>
     </g>
    </g>
    <g id="xtick_10">
     <g id="line2d_17">
      <g>
       <use style="stroke:#000000;stroke-width:0.8;" x="544.710238" xlink:href="#mcba1e2cc1b" y="252"/>
      </g>
     </g>
     <g id="text_17">
      <!-- 60 -->
      <g transform="translate(538.347738 266.598437)scale(0.1 -0.1)">
       <use xlink:href="#DejaVuSans-54"/>
       <use x="63.623047" xlink:href="#DejaVuSans-48"/>
      </g>
     </g>
    </g>
    <g id="xtick_11">
     <g id="line2d_18">
      <g>
       <use style="stroke:#000000;stroke-width:0.8;" x="591.767077" xlink:href="#mcba1e2cc1b" y="252"/>
      </g>
     </g>
     <g id="text_18">
      <!-- 80 -->
      <g transform="translate(585.404577 266.598437)scale(0.1 -0.1)">
       <use xlink:href="#DejaVuSans-56"/>
       <use x="63.623047" xlink:href="#DejaVuSans-48"/>
      </g>
     </g>
    </g>
    <g id="xtick_12">
     <g id="line2d_19">
      <g>
       <use style="stroke:#000000;stroke-width:0.8;" x="638.823916" xlink:href="#mcba1e2cc1b" y="252"/>
      </g>
     </g>
     <g id="text_19">
      <!-- 100 -->
      <g transform="translate(629.280166 266.598437)scale(0.1 -0.1)">
       <use xlink:href="#DejaVuSans-49"/>
       <use x="63.623047" xlink:href="#DejaVuSans-48"/>
       <use x="127.246094" xlink:href="#DejaVuSans-48"/>
      </g>
     </g>
    </g>
   </g>
   <g id="matplotlib.axis_4">
    <g id="ytick_7">
     <g id="line2d_20">
      <g>
       <use style="stroke:#000000;stroke-width:0.8;" x="394.363636" xlink:href="#me313562d5e" y="242.116364"/>
      </g>
     </g>
     <g id="text_20">
      <!-- 0 -->
      <g transform="translate(381.001136 245.915582)scale(0.1 -0.1)">
       <use xlink:href="#DejaVuSans-48"/>
      </g>
     </g>
    </g>
    <g id="ytick_8">
     <g id="line2d_21">
      <g>
       <use style="stroke:#000000;stroke-width:0.8;" x="394.363636" xlink:href="#me313562d5e" y="202.182479"/>
      </g>
     </g>
     <g id="text_21">
      <!-- 20 -->
      <g transform="translate(374.638636 205.981698)scale(0.1 -0.1)">
       <use xlink:href="#DejaVuSans-50"/>
       <use x="63.623047" xlink:href="#DejaVuSans-48"/>
      </g>
     </g>
    </g>
    <g id="ytick_9">
     <g id="line2d_22">
      <g>
       <use style="stroke:#000000;stroke-width:0.8;" x="394.363636" xlink:href="#me313562d5e" y="162.248595"/>
      </g>
     </g>
     <g id="text_22">
      <!-- 40 -->
      <g transform="translate(374.638636 166.047814)scale(0.1 -0.1)">
       <use xlink:href="#DejaVuSans-52"/>
       <use x="63.623047" xlink:href="#DejaVuSans-48"/>
      </g>
     </g>
    </g>
    <g id="ytick_10">
     <g id="line2d_23">
      <g>
       <use style="stroke:#000000;stroke-width:0.8;" x="394.363636" xlink:href="#me313562d5e" y="122.314711"/>
      </g>
     </g>
     <g id="text_23">
      <!-- 60 -->
      <g transform="translate(374.638636 126.113929)scale(0.1 -0.1)">
       <use xlink:href="#DejaVuSans-54"/>
       <use x="63.623047" xlink:href="#DejaVuSans-48"/>
      </g>
     </g>
    </g>
    <g id="ytick_11">
     <g id="line2d_24">
      <g>
       <use style="stroke:#000000;stroke-width:0.8;" x="394.363636" xlink:href="#me313562d5e" y="82.380826"/>
      </g>
     </g>
     <g id="text_24">
      <!-- 80 -->
      <g transform="translate(374.638636 86.180045)scale(0.1 -0.1)">
       <use xlink:href="#DejaVuSans-56"/>
       <use x="63.623047" xlink:href="#DejaVuSans-48"/>
      </g>
     </g>
    </g>
    <g id="ytick_12">
     <g id="line2d_25">
      <g>
       <use style="stroke:#000000;stroke-width:0.8;" x="394.363636" xlink:href="#me313562d5e" y="42.446942"/>
      </g>
     </g>
     <g id="text_25">
      <!-- 100 -->
      <g transform="translate(368.276136 46.246161)scale(0.1 -0.1)">
       <use xlink:href="#DejaVuSans-49"/>
       <use x="63.623047" xlink:href="#DejaVuSans-48"/>
       <use x="127.246094" xlink:href="#DejaVuSans-48"/>
      </g>
     </g>
    </g>
   </g>
   <g id="line2d_26">
    <path clip-path="url(#p1e7fa28fe9)" d="M 565.885815 204.179174 
L 558.82729 208.172562 
L 523.53466 204.179174 
L 490.594873 202.182479 
L 483.536347 186.208926 
L 412.951088 88.370909 
L 427.06814 66.407273 
L 445.890875 58.420496 
L 445.890875 66.407273 
L 464.713611 74.39405 
L 568.238657 44.443636 
L 624.706865 50.433719 
L 634.118232 66.407273 
L 617.648339 82.380826 
L 627.059707 96.357686 
L 631.76539 102.347769 
L 629.412548 104.344463 
L 511.77045 100.351074 
L 415.30393 96.357686 
L 405.892562 122.314711 
L 424.715298 128.304793 
L 455.302243 120.318017 
L 462.360769 140.284959 
L 509.417608 180.218843 
L 636.471074 242.116364 
L 631.76539 210.169256 
L 612.942655 170.235372 
L 624.706865 116.324628 
L 620.001181 110.334545 
L 591.767077 130.301488 
L 558.82729 126.308099 
L 511.77045 134.294876 
L 504.711924 130.301488 
L 502.359082 120.318017 
L 518.828976 112.33124 
L 523.53466 110.334545 
L 568.238657 82.380826 
L 580.002867 84.377521 
L 554.121606 146.275041 
L 551.768764 172.232066 
L 547.06308 184.212231 
L 523.53466 192.199008 
L 488.242031 208.172562 
L 483.536347 220.152727 
L 483.536347 222.149421 
L 523.53466 216.159339 
L 572.944341 214.162645 
L 584.708551 208.172562 
L 608.236971 204.179174 
L 620.001181 196.192397 
L 584.708551 178.222149 
L 598.825603 98.35438 
L 589.414235 64.410579 
L 565.885815 48.437025 
L 549.415922 74.39405 
L 532.946028 78.387438 
L 467.066453 162.248595 
L 455.302243 184.212231 
L 422.362456 186.208926 
L 417.656772 188.20562 
L 405.892562 194.195702 
L 431.773824 202.182479 
L 443.538033 214.162645 
L 455.302243 218.156033 
L 467.066453 240.119669 
L 476.477821 212.16595 
L 485.889189 214.162645 
L 516.476134 224.146116 
L 549.415922 230.136198 
L 561.180132 238.122975 
L 570.591499 226.14281 
L 568.238657 212.16595 
L 577.650025 160.251901 
L 544.710238 118.321322 
L 523.53466 80.384132 
L 525.887502 84.377521 
L 514.123292 66.407273 
L 528.240344 50.433719 
L 523.53466 52.430413 
L 514.123292 54.427107 
L 507.064766 56.423802 
L 483.536347 56.423802 
L 492.947715 80.384132 
L 460.007927 104.344463 
L 450.596559 112.33124 
L 431.773824 156.258512 
L 434.126666 166.241983 
L 427.06814 216.159339 
L 424.715298 228.139504 
L 422.362456 242.116364 
" style="fill:none;stroke:#ff0000;stroke-linecap:square;stroke-width:1.5;"/>
    <g clip-path="url(#p1e7fa28fe9)">
     <use style="fill:#ff0000;stroke:#ff0000;" x="565.885815" xlink:href="#m5c68e12c19" y="204.179174"/>
     <use style="fill:#ff0000;stroke:#ff0000;" x="558.82729" xlink:href="#m5c68e12c19" y="208.172562"/>
     <use style="fill:#ff0000;stroke:#ff0000;" x="523.53466" xlink:href="#m5c68e12c19" y="204.179174"/>
     <use style="fill:#ff0000;stroke:#ff0000;" x="490.594873" xlink:href="#m5c68e12c19" y="202.182479"/>
     <use style="fill:#ff0000;stroke:#ff0000;" x="483.536347" xlink:href="#m5c68e12c19" y="186.208926"/>
     <use style="fill:#ff0000;stroke:#ff0000;" x="412.951088" xlink:href="#m5c68e12c19" y="88.370909"/>
     <use style="fill:#ff0000;stroke:#ff0000;" x="427.06814" xlink:href="#m5c68e12c19" y="66.407273"/>
     <use style="fill:#ff0000;stroke:#ff0000;" x="445.890875" xlink:href="#m5c68e12c19" y="58.420496"/>
     <use style="fill:#ff0000;stroke:#ff0000;" x="445.890875" xlink:href="#m5c68e12c19" y="66.407273"/>
     <use style="fill:#ff0000;stroke:#ff0000;" x="464.713611" xlink:href="#m5c68e12c19" y="74.39405"/>
     <use style="fill:#ff0000;stroke:#ff0000;" x="568.238657" xlink:href="#m5c68e12c19" y="44.443636"/>
     <use style="fill:#ff0000;stroke:#ff0000;" x="624.706865" xlink:href="#m5c68e12c19" y="50.433719"/>
     <use style="fill:#ff0000;stroke:#ff0000;" x="634.118232" xlink:href="#m5c68e12c19" y="66.407273"/>
     <use style="fill:#ff0000;stroke:#ff0000;" x="617.648339" xlink:href="#m5c68e12c19" y="82.380826"/>
     <use style="fill:#ff0000;stroke:#ff0000;" x="627.059707" xlink:href="#m5c68e12c19" y="96.357686"/>
     <use style="fill:#ff0000;stroke:#ff0000;" x="631.76539" xlink:href="#m5c68e12c19" y="102.347769"/>
     <use style="fill:#ff0000;stroke:#ff0000;" x="629.412548" xlink:href="#m5c68e12c19" y="104.344463"/>
     <use style="fill:#ff0000;stroke:#ff0000;" x="511.77045" xlink:href="#m5c68e12c19" y="100.351074"/>
     <use style="fill:#ff0000;stroke:#ff0000;" x="415.30393" xlink:href="#m5c68e12c19" y="96.357686"/>
     <use style="fill:#ff0000;stroke:#ff0000;" x="405.892562" xlink:href="#m5c68e12c19" y="122.314711"/>
     <use style="fill:#ff0000;stroke:#ff0000;" x="424.715298" xlink:href="#m5c68e12c19" y="128.304793"/>
     <use style="fill:#ff0000;stroke:#ff0000;" x="455.302243" xlink:href="#m5c68e12c19" y="120.318017"/>
     <use style="fill:#ff0000;stroke:#ff0000;" x="462.360769" xlink:href="#m5c68e12c19" y="140.284959"/>
     <use style="fill:#ff0000;stroke:#ff0000;" x="509.417608" xlink:href="#m5c68e12c19" y="180.218843"/>
     <use style="fill:#ff0000;stroke:#ff0000;" x="636.471074" xlink:href="#m5c68e12c19" y="242.116364"/>
     <use style="fill:#ff0000;stroke:#ff0000;" x="631.76539" xlink:href="#m5c68e12c19" y="210.169256"/>
     <use style="fill:#ff0000;stroke:#ff0000;" x="612.942655" xlink:href="#m5c68e12c19" y="170.235372"/>
     <use style="fill:#ff0000;stroke:#ff0000;" x="624.706865" xlink:href="#m5c68e12c19" y="116.324628"/>
     <use style="fill:#ff0000;stroke:#ff0000;" x="620.001181" xlink:href="#m5c68e12c19" y="110.334545"/>
     <use style="fill:#ff0000;stroke:#ff0000;" x="591.767077" xlink:href="#m5c68e12c19" y="130.301488"/>
     <use style="fill:#ff0000;stroke:#ff0000;" x="558.82729" xlink:href="#m5c68e12c19" y="126.308099"/>
     <use style="fill:#ff0000;stroke:#ff0000;" x="511.77045" xlink:href="#m5c68e12c19" y="134.294876"/>
     <use style="fill:#ff0000;stroke:#ff0000;" x="504.711924" xlink:href="#m5c68e12c19" y="130.301488"/>
     <use style="fill:#ff0000;stroke:#ff0000;" x="502.359082" xlink:href="#m5c68e12c19" y="120.318017"/>
     <use style="fill:#ff0000;stroke:#ff0000;" x="518.828976" xlink:href="#m5c68e12c19" y="112.33124"/>
     <use style="fill:#ff0000;stroke:#ff0000;" x="523.53466" xlink:href="#m5c68e12c19" y="110.334545"/>
     <use style="fill:#ff0000;stroke:#ff0000;" x="568.238657" xlink:href="#m5c68e12c19" y="82.380826"/>
     <use style="fill:#ff0000;stroke:#ff0000;" x="580.002867" xlink:href="#m5c68e12c19" y="84.377521"/>
     <use style="fill:#ff0000;stroke:#ff0000;" x="554.121606" xlink:href="#m5c68e12c19" y="146.275041"/>
     <use style="fill:#ff0000;stroke:#ff0000;" x="551.768764" xlink:href="#m5c68e12c19" y="172.232066"/>
     <use style="fill:#ff0000;stroke:#ff0000;" x="547.06308" xlink:href="#m5c68e12c19" y="184.212231"/>
     <use style="fill:#ff0000;stroke:#ff0000;" x="523.53466" xlink:href="#m5c68e12c19" y="192.199008"/>
     <use style="fill:#ff0000;stroke:#ff0000;" x="488.242031" xlink:href="#m5c68e12c19" y="208.172562"/>
     <use style="fill:#ff0000;stroke:#ff0000;" x="483.536347" xlink:href="#m5c68e12c19" y="220.152727"/>
     <use style="fill:#ff0000;stroke:#ff0000;" x="483.536347" xlink:href="#m5c68e12c19" y="222.149421"/>
     <use style="fill:#ff0000;stroke:#ff0000;" x="523.53466" xlink:href="#m5c68e12c19" y="216.159339"/>
     <use style="fill:#ff0000;stroke:#ff0000;" x="572.944341" xlink:href="#m5c68e12c19" y="214.162645"/>
     <use style="fill:#ff0000;stroke:#ff0000;" x="584.708551" xlink:href="#m5c68e12c19" y="208.172562"/>
     <use style="fill:#ff0000;stroke:#ff0000;" x="608.236971" xlink:href="#m5c68e12c19" y="204.179174"/>
     <use style="fill:#ff0000;stroke:#ff0000;" x="620.001181" xlink:href="#m5c68e12c19" y="196.192397"/>
     <use style="fill:#ff0000;stroke:#ff0000;" x="584.708551" xlink:href="#m5c68e12c19" y="178.222149"/>
     <use style="fill:#ff0000;stroke:#ff0000;" x="598.825603" xlink:href="#m5c68e12c19" y="98.35438"/>
     <use style="fill:#ff0000;stroke:#ff0000;" x="589.414235" xlink:href="#m5c68e12c19" y="64.410579"/>
     <use style="fill:#ff0000;stroke:#ff0000;" x="565.885815" xlink:href="#m5c68e12c19" y="48.437025"/>
     <use style="fill:#ff0000;stroke:#ff0000;" x="549.415922" xlink:href="#m5c68e12c19" y="74.39405"/>
     <use style="fill:#ff0000;stroke:#ff0000;" x="532.946028" xlink:href="#m5c68e12c19" y="78.387438"/>
     <use style="fill:#ff0000;stroke:#ff0000;" x="467.066453" xlink:href="#m5c68e12c19" y="162.248595"/>
     <use style="fill:#ff0000;stroke:#ff0000;" x="455.302243" xlink:href="#m5c68e12c19" y="184.212231"/>
     <use style="fill:#ff0000;stroke:#ff0000;" x="422.362456" xlink:href="#m5c68e12c19" y="186.208926"/>
     <use style="fill:#ff0000;stroke:#ff0000;" x="417.656772" xlink:href="#m5c68e12c19" y="188.20562"/>
     <use style="fill:#ff0000;stroke:#ff0000;" x="405.892562" xlink:href="#m5c68e12c19" y="194.195702"/>
     <use style="fill:#ff0000;stroke:#ff0000;" x="431.773824" xlink:href="#m5c68e12c19" y="202.182479"/>
     <use style="fill:#ff0000;stroke:#ff0000;" x="443.538033" xlink:href="#m5c68e12c19" y="214.162645"/>
     <use style="fill:#ff0000;stroke:#ff0000;" x="455.302243" xlink:href="#m5c68e12c19" y="218.156033"/>
     <use style="fill:#ff0000;stroke:#ff0000;" x="467.066453" xlink:href="#m5c68e12c19" y="240.119669"/>
     <use style="fill:#ff0000;stroke:#ff0000;" x="476.477821" xlink:href="#m5c68e12c19" y="212.16595"/>
     <use style="fill:#ff0000;stroke:#ff0000;" x="485.889189" xlink:href="#m5c68e12c19" y="214.162645"/>
     <use style="fill:#ff0000;stroke:#ff0000;" x="516.476134" xlink:href="#m5c68e12c19" y="224.146116"/>
     <use style="fill:#ff0000;stroke:#ff0000;" x="549.415922" xlink:href="#m5c68e12c19" y="230.136198"/>
     <use style="fill:#ff0000;stroke:#ff0000;" x="561.180132" xlink:href="#m5c68e12c19" y="238.122975"/>
     <use style="fill:#ff0000;stroke:#ff0000;" x="570.591499" xlink:href="#m5c68e12c19" y="226.14281"/>
     <use style="fill:#ff0000;stroke:#ff0000;" x="568.238657" xlink:href="#m5c68e12c19" y="212.16595"/>
     <use style="fill:#ff0000;stroke:#ff0000;" x="577.650025" xlink:href="#m5c68e12c19" y="160.251901"/>
     <use style="fill:#ff0000;stroke:#ff0000;" x="544.710238" xlink:href="#m5c68e12c19" y="118.321322"/>
     <use style="fill:#ff0000;stroke:#ff0000;" x="523.53466" xlink:href="#m5c68e12c19" y="80.384132"/>
     <use style="fill:#ff0000;stroke:#ff0000;" x="525.887502" xlink:href="#m5c68e12c19" y="84.377521"/>
     <use style="fill:#ff0000;stroke:#ff0000;" x="514.123292" xlink:href="#m5c68e12c19" y="66.407273"/>
     <use style="fill:#ff0000;stroke:#ff0000;" x="528.240344" xlink:href="#m5c68e12c19" y="50.433719"/>
     <use style="fill:#ff0000;stroke:#ff0000;" x="523.53466" xlink:href="#m5c68e12c19" y="52.430413"/>
     <use style="fill:#ff0000;stroke:#ff0000;" x="514.123292" xlink:href="#m5c68e12c19" y="54.427107"/>
     <use style="fill:#ff0000;stroke:#ff0000;" x="507.064766" xlink:href="#m5c68e12c19" y="56.423802"/>
     <use style="fill:#ff0000;stroke:#ff0000;" x="483.536347" xlink:href="#m5c68e12c19" y="56.423802"/>
     <use style="fill:#ff0000;stroke:#ff0000;" x="492.947715" xlink:href="#m5c68e12c19" y="80.384132"/>
     <use style="fill:#ff0000;stroke:#ff0000;" x="460.007927" xlink:href="#m5c68e12c19" y="104.344463"/>
     <use style="fill:#ff0000;stroke:#ff0000;" x="450.596559" xlink:href="#m5c68e12c19" y="112.33124"/>
     <use style="fill:#ff0000;stroke:#ff0000;" x="431.773824" xlink:href="#m5c68e12c19" y="156.258512"/>
     <use style="fill:#ff0000;stroke:#ff0000;" x="434.126666" xlink:href="#m5c68e12c19" y="166.241983"/>
     <use style="fill:#ff0000;stroke:#ff0000;" x="427.06814" xlink:href="#m5c68e12c19" y="216.159339"/>
     <use style="fill:#ff0000;stroke:#ff0000;" x="424.715298" xlink:href="#m5c68e12c19" y="228.139504"/>
     <use style="fill:#ff0000;stroke:#ff0000;" x="422.362456" xlink:href="#m5c68e12c19" y="242.116364"/>
    </g>
   </g>
   <g id="patch_8">
    <path d="M 394.363636 252 
L 394.363636 34.56 
" style="fill:none;stroke:#000000;stroke-linecap:square;stroke-linejoin:miter;stroke-width:0.8;"/>
   </g>
   <g id="patch_9">
    <path d="M 648 252 
L 648 34.56 
" style="fill:none;stroke:#000000;stroke-linecap:square;stroke-linejoin:miter;stroke-width:0.8;"/>
   </g>
   <g id="patch_10">
    <path d="M 394.363636 252 
L 648 252 
" style="fill:none;stroke:#000000;stroke-linecap:square;stroke-linejoin:miter;stroke-width:0.8;"/>
   </g>
   <g id="patch_11">
    <path d="M 394.363636 34.56 
L 648 34.56 
" style="fill:none;stroke:#000000;stroke-linecap:square;stroke-linejoin:miter;stroke-width:0.8;"/>
   </g>
   <g id="text_26">
    <!-- Generation 331, fitness: 1296.73 -->
    <defs>
     <path d="M 40.578125 39.3125 
Q 47.65625 37.796875 51.625 33 
Q 55.609375 28.21875 55.609375 21.1875 
Q 55.609375 10.40625 48.1875 4.484375 
Q 40.765625 -1.421875 27.09375 -1.421875 
Q 22.515625 -1.421875 17.65625 -0.515625 
Q 12.796875 0.390625 7.625 2.203125 
L 7.625 11.71875 
Q 11.71875 9.328125 16.59375 8.109375 
Q 21.484375 6.890625 26.8125 6.890625 
Q 36.078125 6.890625 40.9375 10.546875 
Q 45.796875 14.203125 45.796875 21.1875 
Q 45.796875 27.640625 41.28125 31.265625 
Q 36.765625 34.90625 28.71875 34.90625 
L 20.21875 34.90625 
L 20.21875 43.015625 
L 29.109375 43.015625 
Q 36.375 43.015625 40.234375 45.921875 
Q 44.09375 48.828125 44.09375 54.296875 
Q 44.09375 59.90625 40.109375 62.90625 
Q 36.140625 65.921875 28.71875 65.921875 
Q 24.65625 65.921875 20.015625 65.03125 
Q 15.375 64.15625 9.8125 62.3125 
L 9.8125 71.09375 
Q 15.4375 72.65625 20.34375 73.4375 
Q 25.25 74.21875 29.59375 74.21875 
Q 40.828125 74.21875 47.359375 69.109375 
Q 53.90625 64.015625 53.90625 55.328125 
Q 53.90625 49.265625 50.4375 45.09375 
Q 46.96875 40.921875 40.578125 39.3125 
z
" id="DejaVuSans-51"/>
     <path d="M 10.984375 1.515625 
L 10.984375 10.5 
Q 14.703125 8.734375 18.5 7.8125 
Q 22.3125 6.890625 25.984375 6.890625 
Q 35.75 6.890625 40.890625 13.453125 
Q 46.046875 20.015625 46.78125 33.40625 
Q 43.953125 29.203125 39.59375 26.953125 
Q 35.25 24.703125 29.984375 24.703125 
Q 19.046875 24.703125 12.671875 31.3125 
Q 6.296875 37.9375 6.296875 49.421875 
Q 6.296875 60.640625 12.9375 67.421875 
Q 19.578125 74.21875 30.609375 74.21875 
Q 43.265625 74.21875 49.921875 64.515625 
Q 56.59375 54.828125 56.59375 36.375 
Q 56.59375 19.140625 48.40625 8.859375 
Q 40.234375 -1.421875 26.421875 -1.421875 
Q 22.703125 -1.421875 18.890625 -0.6875 
Q 15.09375 0.046875 10.984375 1.515625 
z
M 30.609375 32.421875 
Q 37.25 32.421875 41.125 36.953125 
Q 45.015625 41.5 45.015625 49.421875 
Q 45.015625 57.28125 41.125 61.84375 
Q 37.25 66.40625 30.609375 66.40625 
Q 23.96875 66.40625 20.09375 61.84375 
Q 16.21875 57.28125 16.21875 49.421875 
Q 16.21875 41.5 20.09375 36.953125 
Q 23.96875 32.421875 30.609375 32.421875 
z
" id="DejaVuSans-57"/>
     <path d="M 8.203125 72.90625 
L 55.078125 72.90625 
L 55.078125 68.703125 
L 28.609375 0 
L 18.3125 0 
L 43.21875 64.59375 
L 8.203125 64.59375 
z
" id="DejaVuSans-55"/>
    </defs>
    <g transform="translate(421.920256 28.56)scale(0.12 -0.12)">
     <use xlink:href="#DejaVuSans-71"/>
     <use x="77.490234" xlink:href="#DejaVuSans-101"/>
     <use x="139.013672" xlink:href="#DejaVuSans-110"/>
     <use x="202.392578" xlink:href="#DejaVuSans-101"/>
     <use x="263.916016" xlink:href="#DejaVuSans-114"/>
     <use x="305.029297" xlink:href="#DejaVuSans-97"/>
     <use x="366.308594" xlink:href="#DejaVuSans-116"/>
     <use x="405.517578" xlink:href="#DejaVuSans-105"/>
     <use x="433.300781" xlink:href="#DejaVuSans-111"/>
     <use x="494.482422" xlink:href="#DejaVuSans-110"/>
     <use x="557.861328" xlink:href="#DejaVuSans-32"/>
     <use x="589.648438" xlink:href="#DejaVuSans-51"/>
     <use x="653.271484" xlink:href="#DejaVuSans-51"/>
     <use x="716.894531" xlink:href="#DejaVuSans-49"/>
     <use x="780.517578" xlink:href="#DejaVuSans-44"/>
     <use x="812.304688" xlink:href="#DejaVuSans-32"/>
     <use x="844.091797" xlink:href="#DejaVuSans-102"/>
     <use x="879.296875" xlink:href="#DejaVuSans-105"/>
     <use x="907.080078" xlink:href="#DejaVuSans-116"/>
     <use x="946.289062" xlink:href="#DejaVuSans-110"/>
     <use x="1009.667969" xlink:href="#DejaVuSans-101"/>
     <use x="1071.191406" xlink:href="#DejaVuSans-115"/>
     <use x="1123.291016" xlink:href="#DejaVuSans-115"/>
     <use x="1175.390625" xlink:href="#DejaVuSans-58"/>
     <use x="1209.082031" xlink:href="#DejaVuSans-32"/>
     <use x="1240.869141" xlink:href="#DejaVuSans-49"/>
     <use x="1304.492188" xlink:href="#DejaVuSans-50"/>
     <use x="1368.115234" xlink:href="#DejaVuSans-57"/>
     <use x="1431.738281" xlink:href="#DejaVuSans-54"/>
     <use x="1495.361328" xlink:href="#DejaVuSans-46"/>
     <use x="1527.148438" xlink:href="#DejaVuSans-55"/>
     <use x="1590.771484" xlink:href="#DejaVuSans-51"/>
    </g>
   </g>
  </g>
 </g>
 <defs>
  <clipPath id="pdfae330ce9">
   <rect height="217.44" width="253.636364" x="90" y="34.56"/>
  </clipPath>
  <clipPath id="p1e7fa28fe9">
   <rect height="217.44" width="253.636364" x="394.363636" y="34.56"/>
  </clipPath>
 </defs>
</svg>
